<svg width="24" height="25" viewBox="0 0 24 25" fill="none" xmlns="http://www.w3.org/2000/svg">
<path d="M9.99981 19.3203C9.76615 19.3207 9.53972 19.2393 9.35981 19.0903C9.25855 19.0063 9.17485 18.9032 9.11349 18.7869C9.05214 18.6705 9.01435 18.5432 9.00227 18.4122C8.99019 18.2812 9.00408 18.1492 9.04312 18.0236C9.08217 17.898 9.1456 17.7813 9.22981 17.6803L13.7098 12.3203L9.38981 6.95025C9.30674 6.84797 9.24471 6.73027 9.20728 6.60393C9.16985 6.47759 9.15775 6.3451 9.17169 6.21407C9.18563 6.08304 9.22533 5.95606 9.2885 5.84042C9.35168 5.72479 9.43708 5.62278 9.53981 5.54025C9.64327 5.44922 9.76444 5.38055 9.8957 5.33856C10.027 5.29657 10.1655 5.28217 10.3026 5.29625C10.4397 5.31034 10.5724 5.35261 10.6924 5.42041C10.8123 5.48821 10.917 5.58008 10.9998 5.69025L15.8298 11.6903C15.9769 11.8692 16.0573 12.0936 16.0573 12.3253C16.0573 12.5569 15.9769 12.7813 15.8298 12.9603L10.8298 18.9603C10.7295 19.0813 10.6021 19.1769 10.4578 19.2395C10.3136 19.302 10.1567 19.3297 9.99981 19.3203Z" fill="white"/>
</svg>
