<svg width="24" height="25" viewBox="0 0 24 25" fill="none" xmlns="http://www.w3.org/2000/svg">
<path d="M5.00006 10.3201C4.9996 10.0865 5.08098 9.86003 5.23006 9.68012C5.31401 9.57886 5.41711 9.49516 5.53346 9.43381C5.6498 9.37245 5.77711 9.33466 5.90809 9.32258C6.03906 9.31051 6.17114 9.32439 6.29674 9.36343C6.42234 9.40248 6.53901 9.46592 6.64006 9.55012L12.0001 14.0301L17.3701 9.71012C17.4723 9.62705 17.59 9.56502 17.7164 9.52759C17.8427 9.49016 17.9752 9.47806 18.1062 9.492C18.2373 9.50594 18.3643 9.54564 18.4799 9.60881C18.5955 9.67199 18.6975 9.75739 18.7801 9.86012C18.8711 9.96359 18.9398 10.0848 18.9818 10.216C19.0237 10.3473 19.0381 10.4858 19.0241 10.6229C19.01 10.76 18.9677 10.8927 18.8999 11.0127C18.8321 11.1327 18.7402 11.2373 18.6301 11.3201L12.6301 16.1501C12.4511 16.2972 12.2267 16.3776 11.9951 16.3776C11.7634 16.3776 11.539 16.2972 11.3601 16.1501L5.36006 11.1501C5.23904 11.0498 5.14338 10.9224 5.08083 10.7782C5.01828 10.6339 4.99061 10.477 5.00006 10.3201Z" fill="white"/>
</svg>
