<svg width="18" height="19" viewBox="0 0 18 19" fill="none" xmlns="http://www.w3.org/2000/svg">
<path d="M15 0.320312H3C2.20435 0.320313 1.44129 0.636383 0.87868 1.19899C0.316071 1.7616 0 2.52466 0 3.32031V15.3203C0 16.116 0.316071 16.879 0.87868 17.4416C1.44129 18.0042 2.20435 18.3203 3 18.3203H15C15.7956 18.3203 16.5587 18.0042 17.1213 17.4416C17.6839 16.879 18 16.116 18 15.3203V3.32031C18 2.52466 17.6839 1.7616 17.1213 1.19899C16.5587 0.636383 15.7956 0.320313 15 0.320312ZM16 15.3203C16 15.5855 15.8946 15.8399 15.7071 16.0274C15.5196 16.215 15.2652 16.3203 15 16.3203H3C2.73478 16.3203 2.48043 16.215 2.29289 16.0274C2.10536 15.8399 2 15.5855 2 15.3203V3.32031C2 3.0551 2.10536 2.80074 2.29289 2.61321C2.48043 2.42567 2.73478 2.32031 3 2.32031H15C15.2652 2.32031 15.5196 2.42567 15.7071 2.61321C15.8946 2.80074 16 3.0551 16 3.32031V15.3203Z" fill="white"/>
<path d="M11.7002 5.71049L7.92019 10.7105L6.29019 8.60049C6.12708 8.39097 5.88742 8.25482 5.62393 8.222C5.36044 8.18919 5.09471 8.26238 4.88519 8.42549C4.67567 8.5886 4.53952 8.82826 4.5067 9.09175C4.47389 9.35523 4.54708 9.62097 4.71019 9.83049L7.14019 12.9405C7.23436 13.0597 7.35445 13.1558 7.49133 13.2217C7.62821 13.2875 7.7783 13.3213 7.93019 13.3205C8.08291 13.3201 8.23351 13.2848 8.37045 13.2172C8.50739 13.1496 8.62703 13.0515 8.72019 12.9305L13.2902 6.93049C13.452 6.71832 13.5228 6.45057 13.4872 6.18614C13.4516 5.92171 13.3124 5.68227 13.1002 5.52049C12.888 5.35871 12.6203 5.28784 12.3558 5.32347C12.0914 5.3591 11.852 5.49832 11.6902 5.71049H11.7002Z" fill="#002554"/>
</svg>
