<svg width="10" height="9" viewBox="0 0 10 9" fill="none" xmlns="http://www.w3.org/2000/svg">
<path d="M7.70019 0.710489L3.92019 5.71049L2.29019 3.60049C2.12708 3.39097 1.88742 3.25482 1.62393 3.222C1.36044 3.18919 1.09471 3.26238 0.885189 3.42549C0.675668 3.5886 0.539523 3.82826 0.506704 4.09175C0.473885 4.35523 0.547081 4.62097 0.710189 4.83049L3.14019 7.94049C3.23436 8.05967 3.35445 8.15583 3.49133 8.22167C3.62821 8.28751 3.7783 8.32131 3.93019 8.32049C4.08291 8.32012 4.23351 8.28478 4.37045 8.21718C4.50739 8.14957 4.62703 8.0515 4.72019 7.93049L9.29019 1.93049C9.45197 1.71832 9.52284 1.45057 9.48721 1.18614C9.45158 0.921713 9.31236 0.682271 9.10019 0.520489C8.88802 0.358707 8.62027 0.287836 8.35584 0.323468C8.09141 0.3591 7.85197 0.498316 7.69019 0.710489H7.70019Z" fill="#002554"/>
</svg>
