<svg width="18" height="19" viewBox="0 0 18 19" fill="none" xmlns="http://www.w3.org/2000/svg">
<path d="M15 0.320312H3C2.20435 0.320313 1.44129 0.636383 0.87868 1.19899C0.316071 1.7616 0 2.52466 0 3.32031V15.3203C0 16.116 0.316071 16.879 0.87868 17.4416C1.44129 18.0042 2.20435 18.3203 3 18.3203H15C15.7956 18.3203 16.5587 18.0042 17.1213 17.4416C17.6839 16.879 18 16.116 18 15.3203V3.32031C18 2.52466 17.6839 1.7616 17.1213 1.19899C16.5587 0.636383 15.7956 0.320313 15 0.320312ZM16 15.3203C16 15.5855 15.8946 15.8399 15.7071 16.0274C15.5196 16.215 15.2652 16.3203 15 16.3203H3C2.73478 16.3203 2.48043 16.215 2.29289 16.0274C2.10536 15.8399 2 15.5855 2 15.3203V3.32031C2 3.0551 2.10536 2.80074 2.29289 2.61321C2.48043 2.42567 2.73478 2.32031 3 2.32031H15C15.2652 2.32031 15.5196 2.42567 15.7071 2.61321C15.8946 2.80074 16 3.0551 16 3.32031V15.3203Z" fill="white" fill-opacity="0.5"/>
</svg>
