<svg width="24" height="25" viewBox="0 0 24 25" fill="none" xmlns="http://www.w3.org/2000/svg">
<path d="M18 3.32031H6C5.20435 3.32031 4.44129 3.63638 3.87868 4.19899C3.31607 4.7616 3 5.52466 3 6.32031V18.3203C3 19.116 3.31607 19.879 3.87868 20.4416C4.44129 21.0042 5.20435 21.3203 6 21.3203H18C18.7956 21.3203 19.5587 21.0042 20.1213 20.4416C20.6839 19.879 21 19.116 21 18.3203V6.32031C21 5.52466 20.6839 4.7616 20.1213 4.19899C19.5587 3.63638 18.7956 3.32031 18 3.32031ZM19 18.3203C19 18.5855 18.8946 18.8399 18.7071 19.0274C18.5196 19.215 18.2652 19.3203 18 19.3203H6C5.73478 19.3203 5.48043 19.215 5.29289 19.0274C5.10536 18.8399 5 18.5855 5 18.3203V6.32031C5 6.0551 5.10536 5.80074 5.29289 5.61321C5.48043 5.42567 5.73478 5.32031 6 5.32031H18C18.2652 5.32031 18.5196 5.42567 18.7071 5.61321C18.8946 5.80074 19 6.0551 19 6.32031V18.3203Z" fill="white" fill-opacity="0.5"/>
</svg>
