<svg width="48" height="48" viewBox="0 0 48 48" fill="none" xmlns="http://www.w3.org/2000/svg">
<rect x="0.5" y="0.5" width="47" height="47" rx="23.5" fill="#002554"/>
<path d="M31 30H17C16.4477 30 16 30.4477 16 31C16 31.5523 16.4477 32 17 32H31C31.5523 32 32 31.5523 32 31C32 30.4477 31.5523 30 31 30Z" fill="white"/>
<path d="M16 29V31C16 31.5523 16.4477 32 17 32C17.5523 32 18 31.5523 18 31V29C18 28.4477 17.5523 28 17 28C16.4477 28 16 28.4477 16 29Z" fill="white"/>
<path d="M30 29V31C30 31.5523 30.4477 32 31 32C31.5523 32 32 31.5523 32 31V29C32 28.4477 31.5523 28 31 28C30.4477 28 30 28.4477 30 29Z" fill="white"/>
<path d="M24.0004 27C23.7931 27.0016 23.5904 26.9387 23.4204 26.82L19.4204 24C19.2049 23.8471 19.0586 23.615 19.0136 23.3545C18.9686 23.0941 19.0286 22.8264 19.1804 22.61C19.2562 22.5019 19.3527 22.4098 19.4642 22.3391C19.5758 22.2684 19.7003 22.2206 19.8304 22.1982C19.9606 22.1759 20.0939 22.1796 20.2226 22.2091C20.3513 22.2386 20.473 22.2933 20.5804 22.37L24.0004 24.76L27.4004 22.2C27.6126 22.0409 27.8793 21.9725 28.1419 22.0101C28.4044 22.0476 28.6413 22.1878 28.8004 22.4C28.9596 22.6122 29.0279 22.8789 28.9904 23.1414C28.9529 23.404 28.8126 23.6409 28.6004 23.8L24.6004 26.8C24.4273 26.9298 24.2168 27 24.0004 27Z" fill="white"/>
<path d="M24 25C23.7348 25 23.4804 24.8946 23.2929 24.7071C23.1054 24.5196 23 24.2652 23 24V16C23 15.7348 23.1054 15.4804 23.2929 15.2929C23.4804 15.1054 23.7348 15 24 15C24.2652 15 24.5196 15.1054 24.7071 15.2929C24.8946 15.4804 25 15.7348 25 16V24C25 24.2652 24.8946 24.5196 24.7071 24.7071C24.5196 24.8946 24.2652 25 24 25Z" fill="white"/>
<rect x="0.5" y="0.5" width="47" height="47" rx="23.5" stroke="white"/>
</svg>
