<svg width="48" height="49" viewBox="0 0 48 49" fill="none" xmlns="http://www.w3.org/2000/svg">
<path d="M21 15.3203H17C16.4696 15.3203 15.9609 15.531 15.5858 15.9061C15.2107 16.2812 15 16.7899 15 17.3203V21.3203C15 21.8507 15.2107 22.3595 15.5858 22.7345C15.9609 23.1096 16.4696 23.3203 17 23.3203H21C21.5304 23.3203 22.0391 23.1096 22.4142 22.7345C22.7893 22.3595 23 21.8507 23 21.3203V17.3203C23 16.7899 22.7893 16.2812 22.4142 15.9061C22.0391 15.531 21.5304 15.3203 21 15.3203ZM17 21.3203V17.3203H21V21.3203H17Z" fill="white"/>
<path d="M31 15.3203H27C26.4696 15.3203 25.9609 15.531 25.5858 15.9061C25.2107 16.2812 25 16.7899 25 17.3203V21.3203C25 21.8507 25.2107 22.3595 25.5858 22.7345C25.9609 23.1096 26.4696 23.3203 27 23.3203H31C31.5304 23.3203 32.0391 23.1096 32.4142 22.7345C32.7893 22.3595 33 21.8507 33 21.3203V17.3203C33 16.7899 32.7893 16.2812 32.4142 15.9061C32.0391 15.531 31.5304 15.3203 31 15.3203ZM27 21.3203V17.3203H31V21.3203H27Z" fill="white"/>
<path d="M21 25.3203H17C16.4696 25.3203 15.9609 25.531 15.5858 25.9061C15.2107 26.2812 15 26.7899 15 27.3203V31.3203C15 31.8507 15.2107 32.3595 15.5858 32.7345C15.9609 33.1096 16.4696 33.3203 17 33.3203H21C21.5304 33.3203 22.0391 33.1096 22.4142 32.7345C22.7893 32.3595 23 31.8507 23 31.3203V27.3203C23 26.7899 22.7893 26.2812 22.4142 25.9061C22.0391 25.531 21.5304 25.3203 21 25.3203ZM17 31.3203V27.3203H21V31.3203H17Z" fill="white"/>
<path d="M31 25.3203H27C26.4696 25.3203 25.9609 25.531 25.5858 25.9061C25.2107 26.2812 25 26.7899 25 27.3203V31.3203C25 31.8507 25.2107 32.3595 25.5858 32.7345C25.9609 33.1096 26.4696 33.3203 27 33.3203H31C31.5304 33.3203 32.0391 33.1096 32.4142 32.7345C32.7893 32.3595 33 31.8507 33 31.3203V27.3203C33 26.7899 32.7893 26.2812 32.4142 25.9061C32.0391 25.531 31.5304 25.3203 31 25.3203ZM27 31.3203V27.3203H31V31.3203H27Z" fill="white"/>
</svg>
