<svg width="48" height="49" viewBox="0 0 48 49" fill="none" xmlns="http://www.w3.org/2000/svg">
<rect y="0.320312" width="48" height="48" rx="24" fill="white"/>
<g clip-path="url(#clip0_497_16061)">
<path d="M33.0004 24.6705C32.989 24.4845 32.9258 24.3055 32.818 24.1535C32.7102 24.0016 32.5621 23.8828 32.3904 23.8105L30.2404 22.8905L32.5004 21.5905C32.6607 21.4983 32.7922 21.3636 32.8805 21.2011C32.9687 21.0387 33.0103 20.8551 33.0004 20.6705C32.989 20.4845 32.9258 20.3055 32.818 20.1535C32.7102 20.0016 32.5621 19.8828 32.3904 19.8105L24.3904 16.4005C24.2671 16.3482 24.1344 16.3213 24.0004 16.3213C23.8664 16.3213 23.7338 16.3482 23.6104 16.4005L15.6104 19.8105C15.4387 19.8828 15.2907 20.0016 15.1829 20.1535C15.0751 20.3055 15.0119 20.4845 15.0004 20.6705C14.9906 20.8551 15.0321 21.0387 15.1204 21.2011C15.2087 21.3636 15.3402 21.4983 15.5004 21.5905L17.7604 22.8905L15.6104 23.8105C15.4387 23.8828 15.2907 24.0016 15.1829 24.1535C15.0751 24.3055 15.0119 24.4845 15.0004 24.6705C14.9906 24.8551 15.0321 25.0387 15.1204 25.2011C15.2087 25.3636 15.3402 25.4983 15.5004 25.5905L17.7604 26.8905L15.6104 27.8105C15.4387 27.8828 15.2907 28.0016 15.1829 28.1535C15.0751 28.3055 15.0119 28.4845 15.0004 28.6705C14.9906 28.8551 15.0321 29.0387 15.1204 29.2011C15.2087 29.3636 15.3402 29.4983 15.5004 29.5905L23.5004 34.1905C23.6525 34.2782 23.8249 34.3244 24.0004 34.3244C24.176 34.3244 24.3484 34.2782 24.5004 34.1905L32.5004 29.5905C32.6607 29.4983 32.7922 29.3636 32.8805 29.2011C32.9687 29.0387 33.0103 28.8551 33.0004 28.6705C32.989 28.4845 32.9258 28.3055 32.818 28.1535C32.7102 28.0016 32.5621 27.8828 32.3904 27.8105L30.2404 26.8905L32.5004 25.5905C32.6607 25.4983 32.7922 25.3636 32.8805 25.2011C32.9687 25.0387 33.0103 24.8551 33.0004 24.6705ZM24.0004 18.4105L29.7604 20.8605L24.0004 24.1705L18.2404 20.8605L24.0004 18.4105ZM23.5004 26.1905C23.6525 26.2782 23.8249 26.3244 24.0004 26.3244C24.176 26.3244 24.3484 26.2782 24.5004 26.1905L28.0704 24.1905L29.7604 24.9105L24.0004 28.1705L18.2404 24.8605L19.9304 24.1405L23.5004 26.1905ZM29.7604 28.8605L24.0004 32.1705L18.2404 28.8605L19.9304 28.1405L23.5004 30.1905C23.6525 30.2782 23.8249 30.3244 24.0004 30.3244C24.176 30.3244 24.3484 30.2782 24.5004 30.1905L28.0704 28.1405L29.7604 28.8605Z" fill="#002554"/>
</g>
<defs>
<clipPath id="clip0_497_16061">
<rect width="24" height="24" fill="white" transform="translate(12 12.3203)"/>
</clipPath>
</defs>
</svg>
