<svg width="24" height="25" viewBox="0 0 24 25" fill="none" xmlns="http://www.w3.org/2000/svg">
<path d="M12 2.32031C10.0222 2.32031 8.08879 2.9068 6.4443 4.00562C4.79981 5.10443 3.51809 6.66622 2.76121 8.49348C2.00433 10.3207 1.8063 12.3314 2.19215 14.2712C2.578 16.211 3.53041 17.9929 4.92894 19.3914C6.32746 20.7899 8.10929 21.7423 10.0491 22.1282C11.9889 22.514 13.9996 22.316 15.8268 21.5591C17.6541 20.8022 19.2159 19.5205 20.3147 17.876C21.4135 16.2315 22 14.2981 22 12.3203C22 11.0071 21.7413 9.70673 21.2388 8.49348C20.7363 7.28022 19.9997 6.17783 19.0711 5.24924C18.1425 4.32066 17.0401 3.58406 15.8268 3.08152C14.6136 2.57897 13.3132 2.32031 12 2.32031ZM12 20.3203C10.4178 20.3203 8.87104 19.8511 7.55544 18.9721C6.23985 18.093 5.21447 16.8436 4.60897 15.3818C4.00347 13.92 3.84504 12.3114 4.15372 10.7596C4.4624 9.20774 5.22433 7.78228 6.34315 6.66346C7.46197 5.54464 8.88743 4.78271 10.4393 4.47403C11.9911 4.16535 13.5997 4.32378 15.0615 4.92928C16.5233 5.53478 17.7727 6.56016 18.6518 7.87575C19.5308 9.19134 20 10.7381 20 12.3203C20 14.442 19.1572 16.4769 17.6569 17.9772C16.1566 19.4775 14.1217 20.3203 12 20.3203Z" fill="white"/>
<path d="M15 11.3203H9C8.73478 11.3203 8.48043 11.4257 8.29289 11.6132C8.10536 11.8007 8 12.0551 8 12.3203C8 12.5855 8.10536 12.8399 8.29289 13.0274C8.48043 13.215 8.73478 13.3203 9 13.3203H15C15.2652 13.3203 15.5196 13.215 15.7071 13.0274C15.8946 12.8399 16 12.5855 16 12.3203C16 12.0551 15.8946 11.8007 15.7071 11.6132C15.5196 11.4257 15.2652 11.3203 15 11.3203Z" fill="white"/>
</svg>
