<svg width="50" height="48" viewBox="0 0 50 48" fill="none" xmlns="http://www.w3.org/2000/svg">
<rect width="50" height="48" rx="24" fill="white"/>
<path d="M31 33H25C24.2044 33 23.4413 32.6839 22.8787 32.1213C22.3161 31.5587 22 30.7956 22 30V24C22 23.2044 22.3161 22.4413 22.8787 21.8787C23.4413 21.3161 24.2044 21 25 21H31C31.7956 21 32.5587 21.3161 33.1213 21.8787C33.6839 22.4413 34 23.2044 34 24V30C34 30.7956 33.6839 31.5587 33.1213 32.1213C32.5587 32.6839 31.7956 33 31 33ZM25 23C24.7348 23 24.4804 23.1054 24.2929 23.2929C24.1054 23.4804 24 23.7348 24 24V30C24 30.2652 24.1054 30.5196 24.2929 30.7071C24.4804 30.8946 24.7348 31 25 31H31C31.2652 31 31.5196 30.8946 31.7071 30.7071C31.8946 30.5196 32 30.2652 32 30V24C32 23.7348 31.8946 23.4804 31.7071 23.2929C31.5196 23.1054 31.2652 23 31 23H25Z" fill="#002554"/>
<path d="M22.73 27H18.67C17.9627 26.9974 17.2851 26.7152 16.7849 26.2151C16.2848 25.7149 16.0026 25.0373 16 24.33V17.67C16.0026 16.9627 16.2848 16.2851 16.7849 15.7849C17.2851 15.2848 17.9627 15.0026 18.67 15H25.33C26.0373 15.0026 26.7149 15.2848 27.2151 15.7849C27.7152 16.2851 27.9974 16.9627 28 17.67V21.4H26V17.67C26 17.4923 25.9294 17.3219 25.8038 17.1962C25.6781 17.0706 25.5077 17 25.33 17H18.67C18.4923 17 18.3219 17.0706 18.1962 17.1962C18.0706 17.3219 18 17.4923 18 17.67V24.33C18 24.5077 18.0706 24.6781 18.1962 24.8038C18.3219 24.9294 18.4923 25 18.67 25H22.73V27Z" fill="#002554"/>
</svg>
