<svg width="48" height="49" viewBox="0 0 48 49" fill="none" xmlns="http://www.w3.org/2000/svg">
<path d="M30 20.3203C30 18.729 29.3679 17.2029 28.2426 16.0777C27.1174 14.9525 25.5913 14.3203 24 14.3203C22.4087 14.3203 20.8826 14.9525 19.7574 16.0777C18.6321 17.2029 18 18.729 18 20.3203C18 27.3203 15 29.3203 15 29.3203H33C33 29.3203 30 27.3203 30 20.3203Z" stroke="white" stroke-width="1.99832" stroke-linecap="round" stroke-linejoin="round"/>
<path d="M25.7305 33.3203C25.5547 33.6231 25.3023 33.8745 24.9987 34.0492C24.6951 34.224 24.3509 34.3159 24.0005 34.3159C23.6501 34.3159 23.3059 34.224 23.0023 34.0492C22.6987 33.8745 22.4463 33.6231 22.2705 33.3203" stroke="white" stroke-width="1.99832" stroke-linecap="round" stroke-linejoin="round"/>
</svg>
