<svg width="48" height="49" viewBox="0 0 48 49" fill="none" xmlns="http://www.w3.org/2000/svg">
<path d="M24 23.3203C24.7911 23.3203 25.5645 23.0857 26.2223 22.6462C26.8801 22.2067 27.3928 21.582 27.6955 20.851C27.9983 20.1201 28.0775 19.3159 27.9231 18.54C27.7688 17.764 27.3878 17.0513 26.8284 16.4919C26.269 15.9325 25.5563 15.5515 24.7804 15.3972C24.0044 15.2428 23.2002 15.322 22.4693 15.6248C21.7384 15.9275 21.1136 16.4402 20.6741 17.098C20.2346 17.7558 20 18.5292 20 19.3203C20 20.3812 20.4214 21.3986 21.1716 22.1487C21.9217 22.8989 22.9391 23.3203 24 23.3203ZM24 17.3203C24.3956 17.3203 24.7822 17.4376 25.1111 17.6574C25.44 17.8771 25.6964 18.1895 25.8478 18.5549C25.9991 18.9204 26.0387 19.3225 25.9616 19.7105C25.8844 20.0985 25.6939 20.4548 25.4142 20.7345C25.1345 21.0142 24.7781 21.2047 24.3902 21.2819C24.0022 21.3591 23.6001 21.3194 23.2346 21.1681C22.8692 21.0167 22.5568 20.7604 22.3371 20.4315C22.1173 20.1026 22 19.7159 22 19.3203C22 18.7899 22.2107 18.2812 22.5858 17.9061C22.9609 17.531 23.4696 17.3203 24 17.3203Z" fill="white"/>
<path d="M24 25.3203C22.1435 25.3203 20.363 26.0578 19.0503 27.3706C17.7375 28.6833 17 30.4638 17 32.3203C17 32.5855 17.1054 32.8399 17.2929 33.0274C17.4804 33.215 17.7348 33.3203 18 33.3203C18.2652 33.3203 18.5196 33.215 18.7071 33.0274C18.8946 32.8399 19 32.5855 19 32.3203C19 30.9942 19.5268 29.7225 20.4645 28.7848C21.4021 27.8471 22.6739 27.3203 24 27.3203C25.3261 27.3203 26.5979 27.8471 27.5355 28.7848C28.4732 29.7225 29 30.9942 29 32.3203C29 32.5855 29.1054 32.8399 29.2929 33.0274C29.4804 33.215 29.7348 33.3203 30 33.3203C30.2652 33.3203 30.5196 33.215 30.7071 33.0274C30.8946 32.8399 31 32.5855 31 32.3203C31 30.4638 30.2625 28.6833 28.9497 27.3706C27.637 26.0578 25.8565 25.3203 24 25.3203V25.3203Z" fill="white"/>
</svg>
